<?xml version="1.0" standalone="no"?>
<!DOCTYPE svg PUBLIC "-//W3C//DTD SVG 20010904//EN"
 "http://www.w3.org/TR/2001/REC-SVG-20010904/DTD/svg10.dtd">
<svg version="1.0" xmlns="http://www.w3.org/2000/svg"
 width="963.000000pt" height="659.000000pt" viewBox="0 0 963.000000 659.000000"
 preserveAspectRatio="xMidYMid meet">

<g transform="translate(0.000000,659.000000) scale(0.100000,-0.100000)"
fill="#000000" stroke="none">
<path d="M9200 6571 c-14 -5 -43 -17 -65 -29 -25 -13 -1113 -1094 -2940 -2921
l-2900 -2901 -1415 1414 c-1269 1268 -1420 1416 -1465 1432 -63 24 -174 24
-229 0 -57 -25 -131 -100 -157 -159 -32 -71 -32 -172 1 -242 19 -41 292 -319
1559 -1586 1477 -1478 1538 -1538 1594 -1558 69 -25 134 -27 208 -5 53 15 104
66 3096 3057 3347 3346 3085 3073 3085 3207 0 92 -29 156 -99 220 -76 69 -185
98 -273 71z"/>
</g>
</svg>
